<svg width="1200" height="700" viewBox="0 0 1200 700" fill="none" xmlns="http://www.w3.org/2000/svg">
  <rect width="1200" height="700" rx="24" fill="#060E21"/>
  <rect x="30" y="30" width="1140" height="640" rx="22" fill="#0A1836" stroke="#22D3EE" stroke-opacity="0.28"/>
  <circle cx="260" cy="220" r="130" fill="#0EA5E9" fill-opacity="0.2"/>
  <circle cx="920" cy="500" r="170" fill="#2563EB" fill-opacity="0.16"/>
  <rect x="90" y="90" width="1020" height="90" rx="14" fill="#10366A"/>
  <rect x="90" y="210" width="320" height="420" rx="16" fill="#112B53"/>
  <rect x="440" y="210" width="670" height="180" rx="16" fill="#0F3D77"/>
  <rect x="440" y="410" width="320" height="220" rx="16" fill="#124E96"/>
  <rect x="790" y="410" width="320" height="220" rx="16" fill="#0E2E58"/>
  <rect x="120" y="120" width="280" height="18" rx="9" fill="#CFFAFE" fill-opacity="0.85"/>
  <rect x="470" y="120" width="190" height="18" rx="9" fill="#BAE6FD" fill-opacity="0.8"/>
  <rect x="120" y="250" width="240" height="12" rx="6" fill="#93C5FD" fill-opacity="0.7"/>
  <rect x="120" y="280" width="210" height="12" rx="6" fill="#93C5FD" fill-opacity="0.45"/>
  <rect x="470" y="250" width="570" height="14" rx="7" fill="#E0F2FE" fill-opacity="0.72"/>
  <rect x="470" y="280" width="520" height="12" rx="6" fill="#E0F2FE" fill-opacity="0.42"/>
  <rect x="470" y="450" width="240" height="14" rx="7" fill="#DBEAFE" fill-opacity="0.78"/>
  <rect x="820" y="450" width="220" height="14" rx="7" fill="#DBEAFE" fill-opacity="0.7"/>
  <circle cx="1030" cy="135" r="12" fill="#22D3EE"/>
  <circle cx="1065" cy="135" r="12" fill="#38BDF8"/>
</svg>