<svg width="1200" height="700" viewBox="0 0 1200 700" fill="none" xmlns="http://www.w3.org/2000/svg">
  <rect width="1200" height="700" rx="24" fill="#0A1020"/>
  <rect x="40" y="40" width="1120" height="620" rx="22" fill="#181F2F" stroke="#F59E0B" stroke-opacity="0.25"/>
  <rect x="90" y="90" width="1020" height="130" rx="14" fill="#2D1F18"/>
  <rect x="90" y="245" width="500" height="370" rx="16" fill="#3A2419"/>
  <rect x="610" y="245" width="500" height="170" rx="16" fill="#4A2B1D"/>
  <rect x="610" y="445" width="500" height="170" rx="16" fill="#2A1E19"/>
  <rect x="130" y="130" width="300" height="18" rx="9" fill="#FDE68A" fill-opacity="0.85"/>
  <rect x="130" y="160" width="210" height="12" rx="6" fill="#FCD34D" fill-opacity="0.55"/>
  <rect x="120" y="280" width="360" height="12" rx="6" fill="#FED7AA" fill-opacity="0.65"/>
  <rect x="120" y="308" width="330" height="12" rx="6" fill="#FED7AA" fill-opacity="0.45"/>
  <rect x="120" y="336" width="290" height="12" rx="6" fill="#FED7AA" fill-opacity="0.35"/>
  <rect x="640" y="280" width="420" height="12" rx="6" fill="#FFEDD5" fill-opacity="0.68"/>
  <rect x="640" y="308" width="380" height="12" rx="6" fill="#FFEDD5" fill-opacity="0.45"/>
  <rect x="640" y="480" width="420" height="12" rx="6" fill="#FDE68A" fill-opacity="0.62"/>
  <rect x="640" y="508" width="320" height="12" rx="6" fill="#FDE68A" fill-opacity="0.4"/>
  <circle cx="1020" cy="155" r="14" fill="#F59E0B"/>
  <circle cx="1060" cy="155" r="14" fill="#FCD34D"/>
</svg>