<svg width="1200" height="720" viewBox="0 0 1200 720" fill="none" xmlns="http://www.w3.org/2000/svg">
  <defs>
    <linearGradient id="bg" x1="0" y1="0" x2="1200" y2="720" gradientUnits="userSpaceOnUse">
      <stop stop-color="#060A15"/>
      <stop offset="0.5" stop-color="#0D1A38"/>
      <stop offset="1" stop-color="#12346A"/>
    </linearGradient>
    <radialGradient id="glowA" cx="0" cy="0" r="1" gradientUnits="userSpaceOnUse" gradientTransform="translate(240 160) rotate(32) scale(350 220)">
      <stop stop-color="#22D3EE" stop-opacity="0.30"/>
      <stop offset="1" stop-color="#22D3EE" stop-opacity="0"/>
    </radialGradient>
    <radialGradient id="glowB" cx="0" cy="0" r="1" gradientUnits="userSpaceOnUse" gradientTransform="translate(980 140) rotate(150) scale(340 220)">
      <stop stop-color="#60A5FA" stop-opacity="0.26"/>
      <stop offset="1" stop-color="#60A5FA" stop-opacity="0"/>
    </radialGradient>
    <linearGradient id="card" x1="210" y1="146" x2="990" y2="578" gradientUnits="userSpaceOnUse">
      <stop stop-color="#0C1833"/>
      <stop offset="1" stop-color="#111F3D"/>
    </linearGradient>
    <linearGradient id="accent" x1="270" y1="210" x2="930" y2="210" gradientUnits="userSpaceOnUse">
      <stop stop-color="#38BDF8"/>
      <stop offset="1" stop-color="#7DD3FC"/>
    </linearGradient>
  </defs>

  <rect width="1200" height="720" rx="24" fill="url(#bg)"/>
  <ellipse cx="240" cy="160" rx="350" ry="220" fill="url(#glowA)"/>
  <ellipse cx="980" cy="140" rx="340" ry="220" fill="url(#glowB)"/>

  <g opacity="0.85">
    <circle cx="150" cy="72" r="1.4" fill="#E5F2FF"/>
    <circle cx="298" cy="96" r="1" fill="#9CC6FF"/>
    <circle cx="480" cy="66" r="1.2" fill="#F2F8FF"/>
    <circle cx="742" cy="88" r="1.1" fill="#CFE4FF"/>
    <circle cx="998" cy="78" r="1.3" fill="#FFF4D9"/>
    <circle cx="1108" cy="112" r="1" fill="#D5E8FF"/>
  </g>

  <rect x="210" y="146" width="780" height="432" rx="22" fill="url(#card)" stroke="#4F9BFF" stroke-opacity="0.35"/>
  <rect x="210" y="146" width="780" height="68" rx="22" fill="#0A142B"/>

  <rect x="250" y="168" width="150" height="24" rx="12" fill="#12B2D7" fill-opacity="0.22" stroke="#57D4F2" stroke-opacity="0.55"/>
  <text x="325" y="184" text-anchor="middle" fill="#BDF4FF" font-size="12" font-family="Inter, Arial, sans-serif" font-weight="700" letter-spacing="0.05em">FEATURED PROJECT</text>

  <rect x="420" y="168" width="68" height="24" rx="12" fill="#22C55E" fill-opacity="0.2" stroke="#86EFAC" stroke-opacity="0.55"/>
  <text x="454" y="184" text-anchor="middle" fill="#D1FAE5" font-size="12" font-family="Inter, Arial, sans-serif" font-weight="700">LIVE</text>

  <text x="270" y="262" fill="#EAF5FF" font-size="46" font-family="Inter, Arial, sans-serif" font-weight="800">Parfume Store</text>
  <rect x="270" y="284" width="660" height="3" rx="2" fill="url(#accent)"/>

  <text x="270" y="330" fill="#B9D4F8" font-size="22" font-family="Inter, Arial, sans-serif" font-weight="500">Luxury Full-stack Perfume E-commerce Experience</text>

  <g fill="#D7E8FF" font-family="Inter, Arial, sans-serif" font-size="16" font-weight="500" opacity="0.93">
    <text x="270" y="380">• Premium dark/light visual system</text>
    <text x="270" y="412">• Multilingual catalog and shopping flow</text>
    <text x="270" y="444">• Animated futuristic interface</text>
    <text x="270" y="476">• Modern full-stack architecture</text>
  </g>

  <g>
    <rect x="270" y="518" width="116" height="34" rx="17" fill="#2A4F86" fill-opacity="0.45" stroke="#7FB7FF" stroke-opacity="0.55"/>
    <text x="328" y="540" text-anchor="middle" fill="#DDEEFF" font-size="13" font-family="Inter, Arial, sans-serif" font-weight="600">Next.js</text>

    <rect x="398" y="518" width="94" height="34" rx="17" fill="#2A4F86" fill-opacity="0.45" stroke="#7FB7FF" stroke-opacity="0.55"/>
    <text x="445" y="540" text-anchor="middle" fill="#DDEEFF" font-size="13" font-family="Inter, Arial, sans-serif" font-weight="600">React</text>

    <rect x="504" y="518" width="130" height="34" rx="17" fill="#2A4F86" fill-opacity="0.45" stroke="#7FB7FF" stroke-opacity="0.55"/>
    <text x="569" y="540" text-anchor="middle" fill="#DDEEFF" font-size="13" font-family="Inter, Arial, sans-serif" font-weight="600">TypeScript</text>

    <rect x="646" y="518" width="138" height="34" rx="17" fill="#2A4F86" fill-opacity="0.45" stroke="#7FB7FF" stroke-opacity="0.55"/>
    <text x="715" y="540" text-anchor="middle" fill="#DDEEFF" font-size="13" font-family="Inter, Arial, sans-serif" font-weight="600">Tailwind</text>

    <rect x="796" y="518" width="124" height="34" rx="17" fill="#2A4F86" fill-opacity="0.45" stroke="#7FB7FF" stroke-opacity="0.55"/>
    <text x="858" y="540" text-anchor="middle" fill="#DDEEFF" font-size="13" font-family="Inter, Arial, sans-serif" font-weight="600">Framer</text>
  </g>
</svg>
