<svg width="1200" height="700" viewBox="0 0 1200 700" fill="none" xmlns="http://www.w3.org/2000/svg">
  <rect width="1200" height="700" rx="24" fill="#071023"/>
  <rect x="40" y="40" width="1120" height="620" rx="20" fill="#0D1A34" stroke="#2563EB" stroke-opacity="0.35"/>
  <rect x="70" y="80" width="250" height="540" rx="14" fill="#12284A"/>
  <rect x="350" y="80" width="780" height="80" rx="14" fill="#113A72"/>
  <rect x="350" y="180" width="360" height="200" rx="14" fill="#124B8F"/>
  <rect x="730" y="180" width="400" height="200" rx="14" fill="#0F3A6D"/>
  <rect x="350" y="400" width="780" height="220" rx="14" fill="#0D2C52"/>
  <circle cx="110" cy="120" r="14" fill="#22D3EE"/>
  <rect x="140" y="110" width="130" height="20" rx="10" fill="#93C5FD" fill-opacity="0.8"/>
  <rect x="90" y="170" width="210" height="12" rx="6" fill="#7DB1F5" fill-opacity="0.7"/>
  <rect x="90" y="200" width="180" height="12" rx="6" fill="#7DB1F5" fill-opacity="0.5"/>
  <rect x="90" y="230" width="160" height="12" rx="6" fill="#7DB1F5" fill-opacity="0.4"/>
  <rect x="380" y="110" width="280" height="18" rx="9" fill="#BAE6FD" fill-opacity="0.85"/>
  <rect x="370" y="210" width="220" height="14" rx="7" fill="#DBEAFE" fill-opacity="0.8"/>
  <rect x="370" y="238" width="280" height="12" rx="6" fill="#DBEAFE" fill-opacity="0.5"/>
  <rect x="750" y="220" width="350" height="12" rx="6" fill="#DBEAFE" fill-opacity="0.7"/>
  <rect x="750" y="246" width="320" height="12" rx="6" fill="#DBEAFE" fill-opacity="0.45"/>
  <rect x="380" y="430" width="180" height="120" rx="12" fill="#1E40AF" fill-opacity="0.7"/>
  <rect x="580" y="430" width="240" height="120" rx="12" fill="#2563EB" fill-opacity="0.45"/>
  <rect x="840" y="430" width="260" height="120" rx="12" fill="#38BDF8" fill-opacity="0.35"/>
</svg>